<?xml version="1.0" encoding="iso-8859-1"?>
<!-- Generator: Adobe Illustrator 17.1.0, SVG Export Plug-In . SVG Version: 6.00 Build 0)  -->
<!DOCTYPE svg PUBLIC "-//W3C//DTD SVG 1.1//EN" "http://www.w3.org/Graphics/SVG/1.1/DTD/svg11.dtd">
<svg version="1.1" id="Capa_1" xmlns="http://www.w3.org/2000/svg" xmlns:xlink="http://www.w3.org/1999/xlink" x="0px" y="0px"
	 viewBox="0 0 442 442" style="enable-background:new 0 0 442 442;" xml:space="preserve">
<g>
	<path style="fill:#fff;" d="M421.301,208.916c-20.574-21.828-52.785-32.896-95.736-32.896h-11.534c-3.283-5.075-9.101-14.073-16.422-25.424
		c-29.014-44.98-79.595-123.713-92.356-145.628C203.462,1.892,200.171,0,196.611,0h-43.203c-3.307,0-6.4,1.635-8.263,4.367
		c-1.862,2.732-2.254,6.208-1.046,9.286l57.314,146.023c2.018,5.141,7.821,7.673,12.962,5.655c5.141-2.018,7.673-7.821,5.655-12.962
		L168.076,20h22.843c16.442,27.3,62.645,99.211,89.883,141.438c3.525,5.464,6.699,10.381,9.413,14.582H61.543l-14.629-37.496
		c-1.498-3.838-5.196-6.365-9.316-6.365H10c-5.523,0-10,4.478-10,10v114.048c0,5.522,4.477,10,10,10h197.74L144.1,428.347
		c-1.208,3.078-0.816,6.554,1.046,9.286c1.862,2.732,4.956,4.367,8.262,4.367h43.203c3.56,0,6.851-1.892,8.642-4.968
		c16.128-27.696,92.316-145.607,108.632-170.826H432c5.523,0,10-4.478,10-10C442,244.521,436.579,225.124,421.301,208.916z
		 M308.446,246.206c-3.391,0-6.55,1.718-8.394,4.563c-3.657,5.647-85.943,132.729-109.133,171.23h-22.843l63.64-162.141
		c1.208-3.078,0.816-6.554-1.046-9.286c-1.862-2.732-4.956-4.367-8.262-4.367H20v-94.048h10.766l14.629,37.496
		c1.498,3.838,5.196,6.365,9.316,6.365h253.875c0.005,0,0.011,0.001,0.016,0.001c0.005,0,0.009-0.001,0.014-0.001h16.95
		c33.017,0,54.727,7.149,69.007,16.518c-0.404,1.086-0.636,2.256-0.636,3.482c0,5.522,4.477,10,10,10h5.701
		c5.904,7.292,8.991,14.592,10.603,20.187H308.446z"/>
	<path style="fill:#fff;" d="M163.937,206.02h-10c-5.523,0-10,4.478-10,10s4.477,10,10,10h10c5.523,0,10-4.478,10-10S169.459,206.02,163.937,206.02z"/>
	<path style="fill:#fff;" d="M363.937,206.02h-10c-5.523,0-10,4.478-10,10s4.477,10,10,10h10c5.523,0,10-4.478,10-10S369.459,206.02,363.937,206.02z"/>
	<path style="fill:#fff;" d="M113.937,206.02h-10c-5.523,0-10,4.478-10,10s4.477,10,10,10h10c5.523,0,10-4.478,10-10S119.459,206.02,113.937,206.02z"/>
	<path style="fill:#fff;" d="M213.937,206.02h-10c-5.523,0-10,4.478-10,10s4.477,10,10,10h10c5.523,0,10-4.478,10-10S219.459,206.02,213.937,206.02z"/>
	<path style="fill:#fff;" d="M313.937,206.02h-10c-5.523,0-10,4.478-10,10s4.477,10,10,10h10c5.523,0,10-4.478,10-10S319.459,206.02,313.937,206.02z"/>
	<path style="fill:#fff;" d="M263.937,206.02h-10c-5.523,0-10,4.478-10,10s4.477,10,10,10h10c5.523,0,10-4.478,10-10S269.459,206.02,263.937,206.02z"/>
</g>
<g>
</g>
<g>
</g>
<g>
</g>
<g>
</g>
<g>
</g>
<g>
</g>
<g>
</g>
<g>
</g>
<g>
</g>
<g>
</g>
<g>
</g>
<g>
</g>
<g>
</g>
<g>
</g>
<g>
</g>
</svg>
